Coordinates
version=1
nRows=30
nColumns=38
inDegrees=no

Units are S.I. units (second, meters, Newtons, ...)
If the header above contains a line with 'inDegrees', this indicates whether rotational values are in degrees (yes) or radians (no).

endheader
time	pelvis_tilt	pelvis_list	pelvis_rotation	pelvis_tx	pelvis_ty	pelvis_tz	hip_flexion_r	hip_adduction_r	hip_rotation_r	knee_angle_r	ankle_angle_r	subtalar_angle_r	mtp_angle_r	hip_flexion_l	hip_adduction_l	hip_rotation_l	knee_angle_l	ankle_angle_l	subtalar_angle_l	mtp_angle_l	lumbar_extension	lumbar_bending	lumbar_rotation	arm_flex_r	arm_add_r	arm_rot_r	elbow_flex_r	pro_sup_r	wrist_flex_r	wrist_dev_r	arm_flex_l	arm_add_l	arm_rot_l	elbow_flex_l	pro_sup_l	wrist_flex_l	wrist_dev_l
1.06	2.38732	1.54422	-0.580383	0.668687	0.891803	0.922897	0.529923	-0.138367	-0.400038	0.359197	0.155755	0	0	-0.27548	-0.0159133	0.0120911	0.418177	0.358091	0	0	-0.078143	-0.0606255	-0.227978	-0.116108	-0.0772872	-0.283125	0.31379	1.41911	0	0	-0.12478	-0.559156	0.575969	0.811952	0.853581	0	0
1.07	2.2509	1.54436	-0.431505	0.668065	0.908061	0.921281	0.523836	-0.138871	-0.401749	0.375403	0.153319	0	0	-0.267973	-0.0269503	0.0150679	0.455343	0.346824	0	0	-0.0667045	-0.057766	-0.240318	-0.124892	-0.0797417	-0.289007	0.313806	1.42719	0	0	-0.134874	-0.554729	0.580029	0.808628	0.854746	0	0
1.08	2.07084	1.54359	-0.23974	0.667641	0.924244	0.919763	0.519449	-0.139019	-0.406488	0.385925	0.124066	0	0	-0.255774	-0.0390199	0.0174789	0.497541	0.330812	0	0	-0.0539625	-0.0543065	-0.250906	-0.134186	-0.0825171	-0.295258	0.314415	1.43735	0	0	-0.143646	-0.549945	0.585486	0.802927	0.856072	0	0
1.09	1.8529	1.54001	-0.0135664	0.667712	0.939916	0.918563	0.522002	-0.137677	-0.409626	0.401893	0.0756266	0	0	-0.237187	-0.0524885	0.0181208	0.54618	0.307783	0	0	-0.0409085	-0.0486282	-0.257391	-0.142619	-0.0854661	-0.302493	0.31679	1.45151	0	0	-0.150084	-0.544077	0.590431	0.794454	0.85827	0	0
1.1	1.64708	1.53405	0.194663	0.66832	0.954989	0.917826	0.535352	-0.135473	-0.403441	0.436307	0.0428657	0	0	-0.212289	-0.0651752	0.0158789	0.600266	0.27612	0	0	-0.0279373	-0.0415003	-0.258349	-0.145513	-0.0860648	-0.337711	0.31445	1.50493	0	0	-0.15523	-0.536779	0.592642	0.784857	0.858649	0	0
1.11	1.59007	1.52668	0.250371	0.66909	0.969725	0.9179	0.549886	-0.130456	-0.387474	0.482951	0.0352281	0	0	-0.188065	-0.07771	0.0123213	0.656841	0.235548	0	0	-0.0202664	-0.0324228	-0.258076	-0.149874	-0.0901307	-0.332477	0.320188	1.4996	0	0	-0.162421	-0.529419	0.590664	0.779659	0.852917	0	0
1.12	1.60561	1.51984	0.233297	0.669699	0.984324	0.918459	0.560957	-0.12372	-0.36769	0.52983	0.0373419	0	0	-0.163708	-0.0889797	0.0124017	0.715958	0.188279	0	0	-0.0162762	-0.0229699	-0.260281	-0.149725	-0.093002	-0.338557	0.321215	1.51248	0	0	-0.173428	-0.521586	0.581579	0.778434	0.852845	0	0
1.13	1.65613	1.51355	0.182002	0.67018	0.998747	0.919185	0.565326	-0.11555	-0.351499	0.567616	0.0339715	0	0	-0.138559	-0.0991721	0.0155653	0.777423	0.135737	0	0	-0.0147086	-0.0139128	-0.266113	-0.153152	-0.0996932	-0.294733	0.329488	1.46143	0	0	-0.187439	-0.516791	0.576707	0.783976	0.829303	0	0
1.14	1.71761	1.50778	0.120412	0.670701	1.01287	0.919951	0.562344	-0.107003	-0.3436	0.593219	0.0225252	0	0	-0.112074	-0.108499	0.0200431	0.840353	0.082212	0	0	-0.0155584	-0.00547273	-0.273018	-0.148855	-0.101202	-0.300012	0.326051	1.47897	0	0	-0.201889	-0.512068	0.567787	0.78991	0.821926	0	0
1.15	1.7383	1.50236	0.100374	0.671314	1.02653	0.920458	0.555741	-0.0989725	-0.344848	0.608597	0.0116631	0	0	-0.0799351	-0.116843	0.0259606	0.90545	0.0271428	0	0	-0.0149933	0.00197071	-0.28078	-0.144994	-0.102474	-0.301441	0.324088	1.49593	0	0	-0.215867	-0.50836	0.559481	0.796845	0.811444	0	0
1.16	1.74099	1.49703	0.0993704	0.671946	1.03976	0.92092	0.544006	-0.0911958	-0.354484	0.614219	0.00834998	0	0	-0.044586	-0.12465	0.0333013	0.969823	-0.0282976	0	0	-0.0138407	0.00901154	-0.288147	-0.142628	-0.103416	-0.301288	0.32454	1.51393	0	0	-0.225777	-0.506296	0.558885	0.801721	0.795953	0	0
1.17	1.75144	1.49281	0.0907517	0.672592	1.05267	0.921563	0.52689	-0.0836265	-0.366962	0.612479	0.0136738	0	0	-0.0101396	-0.130843	0.0404119	1.02954	-0.0835544	0	0	-0.0135208	0.0145076	-0.29258	-0.146493	-0.106332	-0.274526	0.335289	1.49391	0	0	-0.227594	-0.509259	0.580701	0.805562	0.746901	0	0
1.18	1.75301	1.49074	0.0900903	0.673362	1.0653	0.922445	0.509258	-0.0768811	-0.376622	0.608015	0.0230961	0	0	0.0235005	-0.133957	0.0462492	1.08231	-0.139632	0	0	-0.0130914	0.0173838	-0.294096	-0.14355	-0.102898	-0.305399	0.333902	1.54331	0	0	-0.227216	-0.508326	0.588562	0.800739	0.754855	0	0
1.19	1.7409	1.48998	0.101112	0.674262	1.07761	0.923575	0.494011	-0.0699946	-0.381203	0.603833	0.0328924	0	0	0.0563507	-0.134241	0.0507266	1.1295	-0.188719	0	0	-0.0114142	0.0183707	-0.292672	-0.145528	-0.101952	-0.304729	0.341205	1.54607	0	0	-0.223684	-0.508895	0.603989	0.793653	0.751328	0	0
1.2	1.72056	1.48945	0.117669	0.675261	1.08959	0.925043	0.481553	-0.0614887	-0.378599	0.601077	0.0411936	0	0	0.0888421	-0.132904	0.0538119	1.17568	-0.212015	0	0	-0.00908793	0.0189609	-0.289306	-0.155037	-0.108208	-0.237645	0.363584	1.45475	0	0	-0.219915	-0.508539	0.61877	0.784849	0.747971	0	0
1.21	1.70284	1.4897	0.129638	0.676345	1.10132	0.926998	0.470109	-0.0520742	-0.36933	0.599161	0.0490303	0	0	0.120958	-0.130091	0.0549264	1.22171	-0.204264	0	0	-0.00803226	0.0190477	-0.28297	-0.147624	-0.102314	-0.28235	0.355901	1.52186	0	0	-0.215758	-0.505898	0.625563	0.774051	0.760866	0	0
1.22	1.70684	1.49066	0.118457	0.677404	1.11293	0.929391	0.456525	-0.042217	-0.355971	0.596444	0.056775	0	0	0.150364	-0.127015	0.0533765	1.26394	-0.175955	0	0	-0.00893536	0.0185084	-0.276244	-0.147439	-0.104212	-0.251998	0.3618	1.48025	0	0	-0.213411	-0.50413	0.631257	0.76899	0.756293	0	0
1.23	1.7205	1.49292	0.0965606	0.678452	1.12453	0.932091	0.441143	-0.033526	-0.341419	0.592317	0.0642385	0	0	0.177389	-0.123001	0.0492998	1.2995	-0.141444	0	0	-0.01078	0.016729	-0.267542	-0.141986	-0.101792	-0.257022	0.356726	1.48766	0	0	-0.211706	-0.501488	0.632029	0.764023	0.763546	0	0
1.24	1.74495	1.49586	0.0635778	0.679437	1.13608	0.93501	0.422587	-0.0259136	-0.328638	0.584367	0.0717448	0	0	0.202609	-0.118211	0.0438194	1.32834	-0.110677	0	0	-0.0134634	0.0143355	-0.257884	-0.136046	-0.0993249	-0.260986	0.349429	1.49149	0	0	-0.210355	-0.499181	0.632685	0.760494	0.770775	0	0
1.25	1.77572	1.49884	0.0246479	0.680351	1.14749	0.938058	0.400654	-0.0190809	-0.318952	0.570855	0.0789324	0	0	0.227109	-0.112752	0.0387778	1.35097	-0.0873658	0	0	-0.0167077	0.0120883	-0.247438	-0.130927	-0.0969222	-0.265176	0.343155	1.49359	0	0	-0.20805	-0.497656	0.634293	0.75856	0.77614	0	0
1.26	1.80373	1.50151	-0.0111673	0.681207	1.15875	0.941078	0.377171	-0.0130207	-0.312419	0.553778	0.0853212	0	0	0.251897	-0.106943	0.0346445	1.36821	-0.0710761	0	0	-0.0197523	0.0101612	-0.237028	-0.126497	-0.094708	-0.269359	0.338377	1.49613	0	0	-0.205711	-0.496399	0.634132	0.758805	0.778364	0	0
1.27	1.8229	1.50342	-0.0379494	0.682068	1.16989	0.944021	0.353163	-0.00694184	-0.309252	0.534369	0.0904239	0	0	0.277384	-0.101667	0.0312969	1.38056	-0.0612655	0	0	-0.0221466	0.00914453	-0.226192	-0.123023	-0.0921725	-0.275393	0.334587	1.49785	0	0	-0.202949	-0.494674	0.632193	0.759128	0.777526	0	0
1.28	1.83311	1.50403	-0.0561571	0.682895	1.18088	0.946818	0.329664	-0.000115082	-0.308696	0.514324	0.093867	0	0	0.303169	-0.0976973	0.0284064	1.38849	-0.0547737	0	0	-0.0237187	0.00971489	-0.215978	-0.131389	-0.0993491	-0.193475	0.352993	1.37482	0	0	-0.20122	-0.492064	0.627383	0.75894	0.778483	0	0
1.29	1.83571	1.50489	-0.0671277	0.683827	1.19181	0.949463	0.306179	0.00641719	-0.309014	0.492867	0.0963005	0	0	0.328634	-0.0937432	0.0253099	1.3916	-0.0504443	0	0	-0.0254535	0.0102982	-0.202672	-0.123177	-0.0903203	-0.264746	0.339655	1.46857	0	0	-0.196623	-0.490354	0.625901	0.758111	0.779895	0	0
1.3	1.82933	1.51004	-0.0687893	0.684679	1.20282	0.951494	0.283617	0.00807776	-0.30813	0.471951	0.101642	0	0	0.353745	-0.0844853	0.0218872	1.39054	-0.0468838	0	0	-0.0254796	0.00579802	-0.191125	-0.125107	-0.0884128	-0.263098	0.344029	1.45968	0	0	-0.195454	-0.490901	0.621606	0.761466	0.781955	0	0
1.31	1.86669	1.49467	-0.120648	0.686385	1.21303	0.955095	0.263865	0.012147	-0.370775	0.470833	0.102721	0	0	0.373515	-0.102256	0.0178135	1.3854	-0.0432838	0	0	-0.0339372	0.0246731	-0.172424	-0.121292	-0.0898698	-0.261308	0.344196	1.45095	0	0	-0.186545	-0.483123	0.617709	0.752689	0.782477	0	0
1.32	1.61504	1.54181	0.127047	0.687229	1.22497	0.953063	0.258128	-0.0238756	-0.32656	0.459269	0.132742	0	0	0.410472	-0.0559536	0.0151645	1.375	-0.0284125	0	0	-0.0159474	-0.0297058	-0.168441	-0.132605	-0.0810425	-0.252635	0.354147	1.43584	0	0	-0.202386	-0.502133	0.611106	0.780997	0.777817	0	0
1.33	1.95833	1.50011	-0.232241	0.689219	1.23453	0.959412	0.213606	0.0238051	-0.351837	0.428687	0.106834	0	0	0.411684	-0.104779	0.0156244	1.35988	-0.0221756	0	0	-0.0443932	0.0180591	-0.147132	-0.122022	-0.0867479	-0.250678	0.351776	1.42323	0	0	-0.184906	-0.482739	0.599831	0.757007	0.790731	0	0
1.34	1.96797	1.52078	-0.245755	0.688124	1.24553	0.959314	0.193306	0.0220605	-0.286404	0.400008	0.115643	0	0	0.432785	-0.0603422	0.00472164	1.34476	-0.0210092	0	0	-0.0390115	-0.00221962	-0.141606	-0.12299	-0.0823041	-0.27376	0.351032	1.45334	0	0	-0.189946	-0.488454	0.59571	0.770498	0.787017	0	0
1.35	2.07477	1.51906	-0.365414	0.689238	1.25603	0.961292	0.167338	0.0292014	-0.272811	0.382961	0.116582	0	0	0.444389	-0.0642904	-0.00799974	1.32353	-0.00970351	0	0	-0.0479824	-0.00146289	-0.127499	-0.125577	-0.0860985	-0.237415	0.362458	1.39719	0	0	-0.189975	-0.48694	0.584202	0.774364	0.789304	0	0
